# xmcd
# 
# Track frame offsets:
#     150
#     17446
#     33621
#     45215
#     64946
#     79861
#     94498
#     111501
#     128796
#     142148
#     160877
#     172568
# 
# Disc length: 2496
# 
# Revision: 1
# Processed by: cddbd v1.5.2PL0 Copyright (c) Steve Scherf et al.
# Submitted via: fre:ac v1.0.31
# 
DISCID=9b09be0c
DTITLE=Jeremiah Johnson - Heavens To Betsy
DYEAR=0
DGENRE=Blues
TTITLE0=White Lightning
TTITLE1=Tornado
TTITLE2=Soul Crush
TTITLE3=Ecstasy
TTITLE4=Forever And A Day
TTITLE5=American Steel
TTITLE6=Showdown
TTITLE7=Leo Stone
TTITLE8=Castles In The Air
TTITLE9=Long Way Home
TTITLE10=Born Under A Bad Sign
TTITLE11=Preacher's Daughter
EXTD=
EXTT0=
EXTT1=
EXTT2=
EXTT3=
EXTT4=
EXTT5=
EXTT6=
EXTT7=
EXTT8=
EXTT9=
EXTT10=
EXTT11=
PLAYORDER=
